<?xml version="1.0" encoding="UTF-8" standalone="no"?>
<!-- Created with Inkscape (http://www.inkscape.org/) -->

<svg
   width="423.33334mm"
   height="423.33334mm"
   viewBox="0 0 423.33334 423.33334"
   version="1.1"
   id="svg1"
   xml:space="preserve"
   xmlns="http://www.w3.org/2000/svg"
   xmlns:svg="http://www.w3.org/2000/svg"><defs
     id="defs1" /><g
     id="layer1"
     transform="translate(108.74375,68.791672)"><g
       id="g1"
       style="display:inline"><path
         style="display:inline;fill:#ed7438"
         d="m -47.658398,166.44341 c -5.722817,-5.92129 -9.454001,-11.12671 -13.045091,-18.19934 -5.440677,-10.71538 -7.864222,-20.991 -7.859379,-33.3231 0.0014,-3.442 0.08532,-6.77575 0.186587,-7.40833 0.10127,-0.63258 0.436377,-2.73764 0.74468,-4.67792 1.161043,-7.3069 3.400703,-14.13007 6.928555,-21.107985 1.389653,-2.748664 2.618676,-5.076945 2.731163,-5.173959 0.320455,-0.276375 2.497577,-3.527243 2.497577,-3.72937 0,-0.09953 0.157624,-0.372702 0.350275,-0.607047 0.192651,-0.234346 0.919866,-1.140458 1.616035,-2.013583 2.714909,-3.405003 3.587262,-4.398401 5.97119,-6.799734 l 2.469445,-2.487473 0.0966,6.07151 c 0.07241,4.551487 -0.01591,6.185799 -0.352778,6.528016 -0.247156,0.251077 -0.84625,0.986192 -1.331319,1.633587 -0.48507,0.647395 -1.239132,1.608264 -1.675695,2.135264 -0.436562,0.527 -0.79375,1.056123 -0.79375,1.175829 0,0.119706 -0.616058,1.128664 -1.369018,2.24213 -0.75296,1.113465 -1.478033,2.38167 -1.611273,2.818232 -0.13324,0.436563 -0.374777,0.79375 -0.536749,0.79375 -0.233451,0 -0.857374,1.254885 -1.227797,2.469445 -0.02959,0.09701 -0.540306,1.208264 -1.134929,2.469444 -1.939371,4.113359 -3.945214,11.467804 -4.714594,17.286114 -0.607325,4.59278 -0.538854,12.75384 0.147989,17.63889 1.604712,11.41322 6.341227,22.43959 13.461325,31.33728 l 2.069278,2.58589 21.454974,-21.50132 21.4549747,-21.50131 2.9620677,2.89612 2.9620678,2.89612 -24.3143202,24.30958 c -13.372876,13.37027 -24.460603,24.35849 -24.639394,24.41827 -0.17879,0.0598 -1.753202,-1.36897 -3.498694,-3.175 z m 42.3889324,-55.67119 c -2.159253,-2.1343 -4.0992975,-3.88055 -4.3112101,-3.88055 -0.2641154,0 -0.3852957,-1.97545 -0.3852957,-6.28099 v -6.280992 l 7.2319446,7.261892 c 3.9775696,3.99404 7.2319447,7.37091 7.2319447,7.50416 0,0.35289 -5.19179412,5.55704 -5.5438526,5.55704 -0.1636891,0 -2.064278,-1.74625 -4.2235309,-3.88056 z"
         id="path7" /><path
         style="display:inline;fill:#c9385f"
         d="m 225.25161,145.20306 -24.25049,-24.36794 2.90159,-2.91674 2.90159,-2.91674 21.35567,21.34501 c 11.74561,11.73976 21.51137,21.33751 21.70167,21.32833 0.49427,-0.0239 3.12594,-3.39215 5.69647,-7.29098 12.40969,-18.8223 13.80817,-44.00051 3.57968,-64.448515 -2.09088,-4.179921 -4.85958,-8.530241 -7.54157,-11.849681 l -1.91774,-2.373555 0.0145,-5.958209 0.0145,-5.958209 3.67787,3.803442 c 14.40721,14.899136 21.76963,33.976363 20.86019,54.052117 -0.87327,19.27712 -8.05456,35.63874 -21.87086,49.82986 -1.18064,1.21267 -2.30996,2.17896 -2.50959,2.14731 -0.19963,-0.0316 -11.27569,-11.02312 -24.61345,-24.4255 z m -21.56968,-33.41988 -2.76174,-2.86959 6.82845,-6.83583 6.82845,-6.835829 0.0971,5.898409 0.097,5.89841 -3.7952,3.80701 c -2.08737,2.09386 -3.96106,3.80702 -4.16377,3.80702 -0.20271,0 -1.61135,-1.29132 -3.1303,-2.8696 z"
         id="path6" /><path
         style="display:inline;fill:#287cb8"
         d="m 51.116108,69.08906 c -1.58056,-1.582683 -2.873745,-2.985341 -2.873745,-3.117018 0,-0.394097 4.594608,-5.025769 7.055556,-7.112473 8.779201,-7.444118 20.782411,-13.42996 31.333321,-15.625512 8.282564,-1.723529 19.10146,-2.197029 25.81668,-1.129892 1.84326,0.292919 3.98639,0.627237 4.7625,0.742929 0.77611,0.115692 2.57137,0.534584 3.98946,0.93087 1.41809,0.396286 2.84684,0.774889 3.175,0.841339 0.32816,0.06645 1.0729,0.307763 1.65499,0.53625 0.58208,0.228487 1.3293,0.470277 1.66049,0.53731 0.84546,0.171124 9.51497,4.056993 10.15756,4.552846 0.29104,0.224582 1.00542,0.639609 1.5875,0.922282 0.58208,0.282673 1.21708,0.633555 1.41111,0.779737 1.2252,0.923074 5.02761,3.487344 5.46806,3.687543 0.29104,0.132289 0.74134,0.450248 1.00067,0.706575 0.25933,0.256328 1.04785,0.90021 1.75225,1.430851 2.9624,2.231614 2.98012,1.91749 -0.29392,5.208635 l -2.91329,2.928496 -2.68327,-1.996801 c -1.4758,-1.098241 -2.76265,-2.077465 -2.85966,-2.176053 -0.45528,-0.462662 -4.26067,-2.823087 -4.55129,-2.823087 -0.18084,0 -0.38172,-0.138084 -0.4464,-0.306854 -0.19644,-0.512594 -7.29308,-3.760361 -11.19264,-5.122295 -4.26829,-1.49071 -7.01383,-2.23537 -9.22039,-2.5008 -0.86723,-0.10432 -1.97366,-0.27157 -2.45873,-0.371667 -1.88722,-0.389441 -8.77786,-0.757623 -11.80778,-0.630917 -12.812358,0.535794 -24.463038,4.377131 -34.814958,11.478817 -1.728992,1.186133 -5.019775,4.03081 -7.323053,6.330322 -2.300656,2.296895 -4.257095,4.176172 -4.347644,4.176172 -0.09055,0 -1.457818,-1.294922 -3.038377,-2.877605 z"
         id="path5" /><path
         style="display:inline;fill:#08a1a2"
         d="m 96.57292,188.14821 c -0.485069,-0.0765 -2.628194,-0.37967 -4.7625,-0.67375 -14.820704,-2.04215 -28.84075,-8.99751 -40.210341,-19.94839 l -3.747177,-3.60918 2.92097,-2.93622 c 1.606533,-1.61492 3.020635,-2.93623 3.142447,-2.93623 0.121813,0 2.109693,1.87183 4.417511,4.15962 11.704429,11.60284 27.172315,17.75847 44.59146,17.74572 10.6826,-0.008 19.67762,-2.09461 28.92541,-6.7105 4.55379,-2.27296 6.98592,-3.79325 11.14596,-6.96721 l 2.85569,-2.17878 2.89516,2.91028 2.89517,2.91028 -2.57585,2.10649 c -3.42022,2.79701 -5.52987,4.26771 -8.92585,6.2225 -5.85046,3.36764 -14.24148,6.87223 -18.87361,7.88275 -0.6791,0.14815 -1.39348,0.30817 -1.5875,0.3556 -4.70554,1.15037 -11.75971,1.90758 -17.27271,1.8541 -2.723762,-0.0264 -5.34917,-0.11061 -5.83424,-0.18708 z"
         id="path4" /><path
         style="display:inline;fill:#5d438d"
         d="m 148.84476,166.74833 -2.9223,-2.93757 24.36134,-24.29327 c 13.39874,-13.36131 24.36134,-24.42078 24.36134,-24.57662 0,-0.33078 -42.57028,-42.974425 -42.90049,-42.974425 -0.12224,0 -1.54101,-1.324699 -3.15281,-2.943776 l -2.93056,-2.943775 3.12874,-3.114241 3.12874,-3.114242 27.48641,27.540508 27.48641,27.540511 -27.37892,27.37723 c -15.05841,15.05748 -27.46142,27.37723 -27.56226,27.37723 -0.10083,0 -1.49837,-1.3219 -3.10564,-2.93756 z"
         id="path3" /><path
         style="display:inline;fill:#2f9d51"
         d="M 23.318455,139.33011 -1.0762865,114.98388 23.293375,90.644688 C 36.696689,77.258135 47.79265,66.34895 47.951066,66.402055 c 0.158417,0.05311 1.53336,1.287179 3.05543,2.742388 l 2.767399,2.645833 -21.550103,21.607635 -21.550103,21.607639 21.513674,21.51584 21.513675,21.51584 -2.809256,2.82583 c -1.54509,1.55421 -2.892354,2.82301 -2.99392,2.81956 -0.101566,-0.003 -11.162299,-10.96208 -24.579407,-24.35251 z"
         id="path2" /><path
         style="display:inline;fill:#ffffff"
         d="m -44.890972,220.95648 c 0,-28.26338 0.112147,-51.27581 0.249215,-51.13875 0.137068,0.13707 7.995193,-7.49555 17.4625,-16.96138 l 17.2132856,-17.21059 v 68.34934 68.34935 h -17.4625006 -17.4625 z m 259.296982,-17.48543 0.005,-68.8734 17.45737,17.4547 17.45737,17.4547 v 51.4187 51.4187 h -17.46231 -17.46232 z m -55.93051,33.74454 c -4.45099,-10.59263 -8.18811,-19.3183 -8.30472,-19.39037 -0.11661,-0.0721 -2.35138,8.07746 -4.96615,18.11007 l -4.75413,18.2411 -3.92181,0.0995 -3.92181,0.0995 0.30556,-1.15784 c 0.16805,-0.63681 3.66776,-14.0166 7.77711,-29.73285 4.10936,-15.71625 7.57353,-28.76483 7.69816,-28.99686 0.12462,-0.23202 2.63957,5.32423 5.58876,12.34723 2.9492,7.02299 6.97992,16.62673 8.95717,21.34164 1.97725,4.7149 3.70404,8.44553 3.8373,8.29027 0.13327,-0.15525 4.18276,-9.76889 8.99887,-21.36364 4.81612,-11.59476 8.81045,-21.0275 8.8763,-20.96165 0.1088,0.1088 2.50085,9.16518 12.31608,46.62913 1.83001,6.985 3.32731,12.89843 3.32734,13.14097 4e-5,0.32545 -0.99402,0.44097 -3.79455,0.44097 h -3.79461 l -1.98732,-7.67292 c -6.06475,-23.41568 -7.49741,-28.66368 -7.75471,-28.40638 -0.15623,0.15622 -3.7968,8.61579 -8.09017,18.79903 -4.29336,10.18325 -7.91724,18.71466 -8.05305,18.95871 -0.14029,0.2521 -3.74166,-7.87322 -8.33962,-18.81563 z M 21.996093,255.55436 c -4.283776,-1.03652 -8.478478,-3.73285 -11.473634,-7.37519 -1.4915661,-1.81386 -4.5000139,-7.46295 -4.1570647,-7.8059 0.2188955,-0.2189 6.9422547,-2.23315 7.4811347,-2.24127 0.194028,-0.003 0.806814,0.86363 1.361747,1.92568 1.348978,2.58172 3.981827,5.18945 6.475971,6.41418 1.830154,0.89868 2.403041,1.00144 5.567838,0.99868 4.149287,-0.004 5.578809,-0.57604 7.832442,-3.1363 3.217042,-3.65476 2.937313,-8.00931 -0.778258,-12.11515 -2.054403,-2.27019 -4.1795,-3.53728 -10.217907,-6.09243 -7.333402,-3.10312 -10.902663,-5.95739 -13.153588,-10.51866 -1.2757768,-2.58523 -1.3213854,-2.80691 -1.3160149,-6.39649 0.00532,-3.55651 0.058061,-3.81573 1.2109989,-5.95206 2.037268,-3.77494 6.153501,-6.94589 10.64546,-8.20074 2.370594,-0.66224 8.20072,-0.57784 10.892145,0.15767 3.622791,0.99005 7.181352,2.87182 9.512952,5.03047 1.170793,1.08395 2.121407,2.15215 2.112476,2.37379 -0.01409,0.34961 -4.496176,4.10694 -5.880868,4.92993 -0.342256,0.20342 -1.002491,-0.17935 -2.149153,-1.24597 -2.440791,-2.27041 -3.924919,-3.05468 -6.448442,-3.40759 -5.774689,-0.8076 -10.472633,1.30372 -11.650781,5.23603 -0.965552,3.22273 1.233068,6.18894 6.480885,8.74353 1.599209,0.77848 4.905412,2.38371 7.347118,3.56719 9.510865,4.60985 13.728591,10.26044 13.728591,18.39253 0,5.26166 -1.692929,9.18549 -5.437009,12.60175 -3.640184,3.32146 -7.405908,4.69819 -12.716971,4.64924 -1.753992,-0.0162 -4.125523,-0.25598 -5.270068,-0.53292 z m 43.532382,-26.2488 v -25.04723 h -6.879167 -6.879167 v -4.0602 -4.06021 l 17.727084,0.0915 17.727084,0.0915 v 3.88056 3.88056 l -6.967362,0.0957 -6.967361,0.0956 v 25.03977 25.03976 h -3.880555 -3.880556 z m 29.986112,-4.05695 v -29.10416 h 16.051393 16.05139 v 4.05694 4.05694 h -11.99445 -11.99444 v 7.23195 7.23194 h 11.99444 11.99445 v 3.88056 3.88056 h -11.99445 -11.99444 v 10.02653 10.02653 l 11.90625,0.0171 11.90625,0.0171 0.0997,3.89113 0.0998,3.89114 H 111.57753 95.514587 Z M -44.459495,157.27648 c -0.336389,-0.33639 -0.431477,-12.42744 -0.431477,-54.86509 V 47.977775 H -75.58264 -106.27431 V 30.338886 12.699997 h 79.198616 79.198613 V 30.338886 47.977775 H 21.078474 -9.9659714 v 37.836782 37.836783 l -17.0310236,17.02831 c -13.424933,13.42279 -17.122382,16.93695 -17.4625,16.59683 z m 276.299135,-17.59522 -17.30967,-17.29973 -0.0652,-36.584515 c -0.0359,-20.121485 -0.065,-36.86233 -0.0646,-37.201878 5.8e-4,-0.583264 -1.70425,-0.617362 -30.86745,-0.617362 H 152.66459 V 30.338886 12.699997 h 79.375 79.375 v 17.638889 17.638889 h -30.98071 -30.98072 l 0.12692,21.960418 c 0.0698,12.078229 10e-4,36.603957 -0.15192,54.501607 l -0.27885,32.5412 z m -112.49412,-2.68074 c -5.21521,-1.11771 -9.98379,-3.85854 -13.6679,-7.85584 -4.44978,-4.82809 -6.299865,-9.17898 -6.558384,-15.42354 -0.215438,-5.20396 0.304636,-8.02659 2.202114,-11.95166 3.18146,-6.581079 9.18155,-11.618537 16.24185,-13.63606 4.16537,-1.19028 11.33374,-1.122617 16.05139,0.151509 1.84326,0.497823 3.9467,1.159499 4.6743,1.470391 l 1.32292,0.565258 v 3.523044 c 0,1.937674 -0.14676,3.523044 -0.32612,3.523044 -0.17937,0 -1.50527,-0.472154 -2.94645,-1.049231 -7.85259,-3.144328 -14.19442,-3.230707 -20.10213,-0.273803 -11.48083,5.746338 -13.93503,20.218078 -4.9068,28.934098 6.5644,6.3374 16.60863,7.5484 25.47696,3.07168 1.14337,-0.57718 2.24214,-1.04941 2.4417,-1.04941 0.2254,0 0.36284,1.39337 0.36284,3.67852 v 3.67853 l -2.82486,1.08938 c -1.55368,0.59916 -3.9453,1.32508 -5.31473,1.61314 -3.12466,0.6573 -8.91583,0.62909 -12.1267,-0.0591 z m 37.5524,-0.6883 c -2.57654,-0.68935 -5.26491,-2.3548 -7.6289,-4.72611 -4.6581,-4.67253 -5.86253,-11.71086 -3.01799,-17.63631 1.24493,-2.59332 4.96675,-6.32102 7.67703,-7.68916 5.12664,-2.58792 11.53384,-2.19479 16.19903,0.99392 2.17725,1.48818 4.88282,4.54783 5.91816,6.69266 1.86036,3.85399 1.95114,9.12517 0.22436,13.02883 -1.80247,4.07478 -6.05068,7.94357 -10.09393,9.1924 -2.72323,0.84113 -6.45517,0.89896 -9.27776,0.14377 z m 8.68575,-7.0246 c 4.29705,-2.10235 6.54858,-6.86517 5.29076,-11.19192 -1.63739,-5.63244 -8.33703,-8.63522 -13.74374,-6.15995 -7.17329,3.28405 -8.06759,12.20011 -1.66849,16.6347 3.05335,2.11597 6.72996,2.37648 10.12147,0.71717 z M 38.364585,112.3089 V 88.445572 l 8.731251,0.205068 c 9.875567,0.231945 12.654395,0.704984 17.365725,2.956164 3.481382,1.663483 7.708957,5.846117 9.636859,9.534416 2.712538,5.1894 3.456053,11.57496 2.007312,17.23948 -1.554081,6.0764 -6.209177,11.89513 -11.646304,14.55753 -5.178128,2.53558 -9.369036,3.21766 -19.833037,3.22788 l -6.261806,0.006 z m 13.934723,17.01157 c 7.54096,-0.35852 13.059686,-3.53973 15.959444,-9.19964 3.392821,-6.6223 2.176431,-14.25065 -3.158216,-19.80613 -3.450155,-3.592975 -7.08493,-4.841835 -15.358867,-5.277097 l -4.674306,-0.245898 v 17.489765 17.48977 l 1.852084,-0.14152 c 1.018646,-0.0778 3.439583,-0.217 5.379861,-0.30925 z m 31.92639,-8.49408 v -15.34584 h 3.175 3.175 v 15.34584 15.34583 h -3.175 -3.175 z m 0.795947,-21.2177 c -3.545915,-1.748068 -3.351543,-6.884834 0.333061,-8.801932 2.833253,-1.474141 6.52226,0.583131 6.889601,3.842166 0.459205,4.074062 -3.501811,6.794076 -7.222662,4.959766 z"
         id="path1" /></g></g></svg>
