<?xml version="1.0" encoding="UTF-8" standalone="no"?>
<svg
   version="1.1"
   width="1245"
   height="1245"
   viewBox="0,0,1250,1250"
   id="svg9"
   sodipodi:docname="Marca_Color.svg"
   inkscape:version="1.2.2 (b0a84865, 2022-12-01)"
   xmlns:inkscape="http://www.inkscape.org/namespaces/inkscape"
   xmlns:sodipodi="http://sodipodi.sourceforge.net/DTD/sodipodi-0.dtd"
   xmlns="http://www.w3.org/2000/svg"
   xmlns:svg="http://www.w3.org/2000/svg">
  <sodipodi:namedview
     id="namedview8"
     pagecolor="#ffffff"
     bordercolor="#000000"
     borderopacity="0.25"
     inkscape:showpageshadow="2"
     inkscape:pageopacity="0.0"
     inkscape:pagecheckerboard="0"
     inkscape:deskcolor="#d1d1d1"
     showgrid="false"
     inkscape:zoom="0.8248996"
     inkscape:cx="680.6889"
     inkscape:cy="603.70983"
     inkscape:window-width="2560"
     inkscape:window-height="1302"
     inkscape:window-x="0"
     inkscape:window-y="25"
     inkscape:window-maximized="0"
     inkscape:current-layer="svg9" />
  <defs
     id="defs13" />
  <g
     fill="#ffffff"
     fill-rule="nonzero"
     stroke-linecap="round"
     stroke-linejoin="round"
     stroke-miterlimit="10"
     stroke-dasharray="none"
     stroke-dashoffset="0"
     text-anchor="none"
     style="mix-blend-mode:normal"
     id="g7"
     transform="translate(-5,112)">
    <g
       id="Emblema">
      <g
         id="Capa1">
        <path
           d="m 186,197.53171 v 293.15957 l 137.44046,-8.5e-4 c -0.95038,9.92471 -1.09046,19.98579 -1.09046,30.15957 0,4.97481 0.11625,9.92248 0.34617,14.84043 h 310.23518 c 7.83554,23.83207 27.6536,47.17067 60.13168,68.0206 46.12384,29.61008 110.37241,49.44494 180.49344,58.59945 l -0.0129,0.0155 c 12.40026,1.61914 24.9842,2.90427 37.68404,3.85038 C 858.91954,765.57383 754.62667,833.35 634.50383,833.35 466.88996,833.35 330.44335,701.38811 322.69617,535.69043 L 186,535.69128 v 506.79702 l -45,88.3175 V 535.69128 H 91.02833 l -84.5343997,-45 v 0 H 141 v -282.34043 0 c 0.002,-31.97314 0.85763,-64.48928 3.80596,-96.54175 15.0944,-164.09757 64.99069,-253.90173 111.44649,-200.58319 37.38178,42.90405 61.14509,165.4067 61.13748,297.12494 h -44.75795 c 0,-147.73617 -19.5698,-267.50001 -43.71037,-267.50001 -23.54845,0 -41.99395,113.96077 -42.92161,256.68087 z M 634.50383,208.35 c 113.07016,0 213.46739,60.51052 268.33292,150.45974 -47.07872,4.15939 -94.33013,12.65872 -135.66634,26.66642 -76.88799,26.05522 -123.03343,64.51082 -134.98876,105.21427 H 323.44046 C 338.61281,332.25179 472.08892,208.35 634.50383,208.35 Z m 289.25874,413.18972 c 0.002,-0.006 0.004,-0.0112 0.006,-0.0168 C 802.40349,613.87383 705.73146,579.63357 679.6737,535.69043 h 266.98396 c -1.40488,30.04951 -7.05385,58.98948 -16.36108,86.23407 -2.18572,-0.11969 -4.36382,-0.24799 -6.53401,-0.38478 z M 678.20553,490.69043 c 23.6247,-45.06371 122.94166,-79.69126 246.18183,-87.63662 v 0 c 11.15502,27.39135 18.44808,56.8781 21.40928,87.50105 v 0 z M 902.83675,358.80974 c 43.11554,-1.39861 87.95719,-0.2631 131.92635,3.78138 164.0975,15.0944 253.9017,64.99069 200.5832,111.44649 v 0 c -41.7434,36.37047 -158.8367,60.41693 -286.4563,61.65367 v 0 l -2.23234,-8.5e-4 C 946.88761,530.7722 947.35,525.8251 947.35,520.85 c 0,-10.27347 -0.58449,-20.27586 -1.55336,-30.29514 144.19196,-0.66286 259.92466,-20.12635 259.92466,-43.84808 0,-24.14057 -119.7638,-43.71037 -267.49998,-43.71037 -4.63985,0 -9.25212,0.0193 -13.83396,0.0574 -6.34392,-15.57727 -12.88433,-30.03958 -21.55061,-44.24407 z m 72.38458,264.33437 c 72.06037,0 138.23577,-9.26656 190.19647,-24.73627 l 62.2206,9.97102 c -18.7056,11.10506 -40.9771,21.2033 -66.6856,29.91519 v -10e-6 c -74.8635,25.36917 -165.02441,34.15121 -249.72519,27.88232 7.44647,-14.14679 13.83292,-28.92798 19.06897,-44.25186 14.55015,0.79047 29.77715,1.21962 44.92475,1.21962 z"
           id="Trazado" />
      </g>
    </g>
  </g>
  <g
     aria-label="FACULTAD DE"
     id="Linea1"
     style="font-size:12px;fill:#ffffff">
    <path
       d="m 243.97757,991.41308 h -14.53458 v 15.52152 h 12.74019 v 13.6374 H 229.44299 V 1050 h -14.26542 v -72.2243 h 28.8 z"
       style="font-weight:100;font-size:96px;font-family:'Futura Condensed';-inkscape-font-specification:'Futura Condensed, Thin'"
       id="path171" />
    <path
       d="m 297.89904,1050 h -14.89346 l -2.87102,-12.1121 H 266.04857 L 263.4467,1050 h -14.26542 l 16.95701,-72.2243 h 15.0729 z m -19.6486,-23.686 -5.20374,-29.60746 -4.84486,29.60746 z"
       style="font-weight:100;font-size:96px;font-family:'Futura Condensed';-inkscape-font-specification:'Futura Condensed, Thin'"
       id="path173" />
    <path
       d="m 344.01488,991.41308 q -2.96075,-0.80747 -5.11402,-0.80747 -8.34393,0 -13.27851,6.45981 -4.93458,6.37008 -4.93458,16.23928 0,9.3308 4.48598,16.0598 5.0243,7.5364 13.09907,7.5364 2.69159,0 5.4729,-0.8972 v 13.5477 q -1.7944,0.4486 -3.58879,0.8075 -1.70467,0.3589 -3.40934,0.3589 -13.90655,0 -22.87851,-11.6636 -8.34392,-10.8561 -8.34392,-25.929 0,-14.53455 8.34392,-24.94202 8.88224,-11.12524 22.60935,-11.12524 2.51215,0 4.66542,0.53832 0.4486,0.0897 2.87103,0.8972 z"
       style="font-weight:100;font-size:96px;font-family:'Futura Condensed';-inkscape-font-specification:'Futura Condensed, Thin'"
       id="path175" />
    <path
       d="m 396.05208,1030.9794 q 0,9.3309 -4.39627,14.1757 -5.29345,5.8318 -16.77757,5.8318 -10.40747,0 -15.79065,-4.9346 -5.29346,-5.0243 -5.29346,-13.6373 v -54.6393 h 13.99626 v 52.7551 q 0,3.1402 2.06355,5.3832 2.15328,2.1533 5.20374,2.1533 3.85795,0 5.4729,-2.3327 1.25607,-1.8841 1.25607,-5.4729 v -52.486 h 14.26543 z"
       style="font-weight:100;font-size:96px;font-family:'Futura Condensed';-inkscape-font-specification:'Futura Condensed, Thin'"
       id="path177" />
    <path
       d="m 437.14357,1050 h -29.15888 v -72.2243 h 14.44486 l -0.0897,58.5869 h 14.80374 z"
       style="font-weight:100;font-size:96px;font-family:'Futura Condensed';-inkscape-font-specification:'Futura Condensed, Thin'"
       id="path179" />
    <path
       d="M 481.55476,991.41308 H 470.69869 V 1050 H 456.25383 V 991.41308 H 444.94915 V 977.7757 h 36.60561 z"
       style="font-weight:100;font-size:96px;font-family:'Futura Condensed';-inkscape-font-specification:'Futura Condensed, Thin'"
       id="path181" />
    <path
       d="m 531.97704,1050 h -14.89345 l -2.87103,-12.1121 H 500.12658 L 497.52471,1050 h -14.26542 l 16.95701,-72.2243 h 15.07289 z m -19.64859,-23.686 -5.20374,-29.60746 -4.84486,29.60746 z"
       style="font-weight:100;font-size:96px;font-family:'Futura Condensed';-inkscape-font-specification:'Futura Condensed, Thin'"
       id="path183" />
    <path
       d="m 584.73213,1014.2916 q 0,17.6748 -8.16449,26.9159 -7.8056,8.7925 -21.71215,8.7925 h -13.00934 v -72.2243 h 11.57383 q 14.89346,0 22.60935,7.98505 8.7028,9.06168 8.7028,28.53085 z m -14.35514,-1.7944 q 0,-10.0486 -3.58878,-15.61122 -2.60187,-4.03738 -6.8187,-5.4729 -1.97383,-0.35887 -3.85794,-0.71775 v 46.56447 q 2.24299,-0.628 4.48598,-1.2561 4.03738,-1.7046 6.45981,-6.2803 3.31963,-6.1907 3.31963,-17.2262 z"
       style="font-weight:100;font-size:96px;font-family:'Futura Condensed';-inkscape-font-specification:'Futura Condensed, Thin'"
       id="path185" />
    <path
       d="m 657.04597,1014.2916 q 0,17.6748 -8.16448,26.9159 Q 641.07588,1050 627.16934,1050 h -13.00935 v -72.2243 h 11.57383 q 14.89346,0 22.60935,7.98505 8.7028,9.06168 8.7028,28.53085 z m -14.35514,-1.7944 q 0,-10.0486 -3.58878,-15.61122 -2.60187,-4.03738 -6.81869,-5.4729 -1.97384,-0.35887 -3.85795,-0.71775 v 46.56447 q 2.24299,-0.628 4.48598,-1.2561 4.03739,-1.7046 6.45982,-6.2803 3.31962,-6.1907 3.31962,-17.2262 z"
       style="font-weight:100;font-size:96px;font-family:'Futura Condensed';-inkscape-font-specification:'Futura Condensed, Thin'"
       id="path187" />
    <path
       d="m 695.4459,991.41308 h -14.53458 v 15.52152 h 12.65047 v 13.6374 h -12.65047 v 15.7906 h 14.35514 V 1050 h -28.53084 v -72.2243 h 28.71028 z"
       style="font-weight:100;font-size:96px;font-family:'Futura Condensed';-inkscape-font-specification:'Futura Condensed, Thin'"
       id="path189" />
  </g>
  <g
     aria-label="EDUCACIÓN Y PSICOLOGÍA"
     id="Linea2"
     style="font-size:12px;fill:#ffffff">
    <path
       d="m 243.65943,1090.3907 h -14.53457 v 15.5215 h 12.65046 v 13.6374 h -12.65046 v 15.7907 H 243.48 v 13.6374 h -28.53085 v -72.2243 h 28.71028 z"
       style="font-weight:100;font-size:96px;font-family:'Futura Condensed';-inkscape-font-specification:'Futura Condensed, Thin'"
       id="path192" />
    <path
       d="m 296.50426,1113.2692 q 0,17.6748 -8.16449,26.9159 -7.80561,8.7926 -21.71215,8.7926 h -13.00935 v -72.2243 h 11.57384 q 14.89345,0 22.60934,7.985 8.70281,9.0617 8.70281,28.5308 z m -14.35514,-1.7943 q 0,-10.0486 -3.58879,-15.6113 -2.60187,-4.0373 -6.81869,-5.4729 -1.97383,-0.3588 -3.85795,-0.7177 v 46.5645 q 2.243,-0.6281 4.48599,-1.2561 4.03738,-1.7047 6.45981,-6.2804 3.31963,-6.1906 3.31963,-17.2261 z"
       style="font-weight:100;font-size:96px;font-family:'Futura Condensed';-inkscape-font-specification:'Futura Condensed, Thin'"
       id="path194" />
    <path
       d="m 346.8369,1129.9571 q 0,9.3308 -4.39627,14.1757 -5.29345,5.8318 -16.77757,5.8318 -10.40747,0 -15.79065,-4.9346 -5.29346,-5.0243 -5.29346,-13.6374 v -54.6392 h 13.99626 v 52.7551 q 0,3.1402 2.06356,5.3832 2.15327,2.1533 5.20373,2.1533 3.85795,0 5.4729,-2.3328 1.25608,-1.8841 1.25608,-5.4729 v -52.4859 h 14.26542 z"
       style="font-weight:100;font-size:96px;font-family:'Futura Condensed';-inkscape-font-specification:'Futura Condensed, Thin'"
       id="path196" />
    <path
       d="m 394.74708,1090.3907 q -2.96074,-0.8074 -5.11402,-0.8074 -8.34392,0 -13.2785,6.4598 -4.93458,6.3701 -4.93458,16.2392 0,9.3309 4.48598,16.0598 5.0243,7.5365 13.09907,7.5365 2.69159,0 5.47289,-0.8972 v 13.5477 q -1.79439,0.4486 -3.58878,0.8074 -1.70467,0.3589 -3.40935,0.3589 -13.90654,0 -22.8785,-11.6635 -8.34393,-10.8561 -8.34393,-25.929 0,-14.5346 8.34393,-24.9421 8.88224,-11.1252 22.60934,-11.1252 2.51215,0 4.66543,0.5383 0.44859,0.09 2.87102,0.8972 z"
       style="font-weight:100;font-size:96px;font-family:'Futura Condensed';-inkscape-font-specification:'Futura Condensed, Thin'"
       id="path198" />
    <path
       d="m 450.28335,1148.9777 h -14.89346 l -2.87103,-12.1122 h -14.08598 l -2.60187,12.1122 h -14.26542 l 16.95701,-72.2243 h 15.0729 z m -19.6486,-23.686 -5.20374,-29.6075 -4.84486,29.6075 z"
       style="font-weight:100;font-size:96px;font-family:'Futura Condensed';-inkscape-font-specification:'Futura Condensed, Thin'"
       id="path200" />
    <path
       d="m 496.39918,1090.3907 q -2.96074,-0.8074 -5.11402,-0.8074 -8.34392,0 -13.2785,6.4598 -4.93458,6.3701 -4.93458,16.2392 0,9.3309 4.48598,16.0598 5.0243,7.5365 13.09907,7.5365 2.69159,0 5.47289,-0.8972 v 13.5477 q -1.79439,0.4486 -3.58878,0.8074 -1.70467,0.3589 -3.40935,0.3589 -13.90654,0 -22.8785,-11.6635 -8.34393,-10.8561 -8.34393,-25.929 0,-14.5346 8.34393,-24.9421 8.88224,-11.1252 22.60934,-11.1252 2.51215,0 4.66543,0.5383 0.44859,0.09 2.87102,0.8972 z"
       style="font-weight:100;font-size:96px;font-family:'Futura Condensed';-inkscape-font-specification:'Futura Condensed, Thin'"
       id="path202" />
    <path
       d="m 522.41769,1148.9777 h -14.53458 v -72.2243 h 14.53458 z"
       style="font-weight:100;font-size:96px;font-family:'Futura Condensed';-inkscape-font-specification:'Futura Condensed, Thin'"
       id="path204" />
    <path
       d="m 584.68301,1112.1926 q 0,15.1626 -5.74206,25.3907 -6.81869,12.2018 -19.55888,12.2018 -13.09906,0 -19.82804,-12.1121 -5.65233,-10.1383 -5.65233,-25.3907 0,-14.9831 5.56261,-24.942 6.72898,-12.0225 19.6486,-12.0225 13.18879,0 19.91776,11.843 5.65234,9.9589 5.65234,25.0318 z m -15.5215,0 q 0,-13.0093 -2.42243,-18.3028 -2.33271,-5.2934 -6.37009,-5.2934 -6.01122,0 -8.88225,8.2542 -2.24299,6.4598 -2.24299,15.8803 0,9.6 1.7944,15.4318 2.42243,8.0748 8.07476,8.0748 5.65234,0 8.16449,-8.1645 1.88411,-6.1009 1.88411,-15.8804 z m -0.35888,-53.3832 -12.11215,13.2785 -6.72897,-3.8579 9.24112,-13.7271 z"
       style="font-weight:100;font-size:96px;font-family:'Futura Condensed';-inkscape-font-specification:'Futura Condensed, Thin'"
       id="path206" />
    <path
       d="m 639.95024,1076.7534 -0.0897,72.2243 h -13.63739 l -17.31589,-43.8729 0.98692,43.8729 h -14.6243 v -72.2243 h 13.90654 l 17.67477,43.2448 -1.25607,-43.2448 z"
       style="font-weight:100;font-size:96px;font-family:'Futura Condensed';-inkscape-font-specification:'Futura Condensed, Thin'"
       id="path208" />
    <path
       d="m 715.04543,1076.7534 -16.68785,37.5925 0.0897,34.6318 h -13.99626 v -34.5421 l -17.22617,-37.6822 h 15.34206 l 9.06168,23.1476 7.89533,-23.1476 z"
       style="font-weight:100;font-size:96px;font-family:'Futura Condensed';-inkscape-font-specification:'Futura Condensed, Thin'"
       id="path210" />
    <path
       d="m 783.50133,1096.7608 q 0,9.3309 -5.38318,15.6113 -5.83177,6.8186 -15.07289,6.8186 -1.97384,0 -4.66542,-0.4486 v 30.2356 h -14.6243 v -72.2243 h 20.09719 q 8.25421,0 13.90654,5.6523 5.74206,5.5626 5.74206,14.3551 z m -14.35514,1.2561 q 0,-4.3962 -1.79439,-6.8187 -1.70467,-2.4224 -5.11402,-2.4224 h -3.76822 v 18.572 q 0.53831,0.09 1.61495,0.09 3.94766,0 6.45981,-2.243 2.60187,-2.3327 2.60187,-7.1776 z"
       style="font-weight:100;font-size:96px;font-family:'Futura Condensed';-inkscape-font-specification:'Futura Condensed, Thin'"
       id="path212" />
    <path
       d="m 826.20772,1127.9833 q 0,9.6897 -5.74206,15.7906 -5.65233,6.0112 -14.44486,6.0112 -6.10093,0 -9.86915,-1.8841 -0.35888,-0.1794 -2.87103,-2.0635 v -13.7271 q 0.4486,0.7177 3.58878,2.243 4.03739,1.9738 7.17757,1.9738 3.05047,0 5.56262,-1.8841 2.87103,-2.1533 2.87103,-5.5626 0,-4.3066 -5.74206,-8.7028 -3.14019,-2.243 -6.19065,-4.5757 -4.84486,-3.9477 -6.54954,-6.5496 -3.31962,-5.114 -3.31962,-13.2785 0,-8.0747 4.5757,-13.9065 4.93458,-6.2804 12.38131,-6.2804 4.84486,0 10.0486,1.615 1.70467,0.5383 4.21682,1.6149 v 14.2654 q -0.26916,-0.7177 -3.58879,-2.4224 -4.1271,-2.1533 -7.71588,-2.1533 -2.69159,0 -4.21683,1.7944 -1.52523,1.7944 -1.52523,4.3963 -0.0897,0.7177 -0.0897,0.9869 0,4.3065 4.48598,8.0748 2.87103,2.1532 3.94766,2.9607 6.99814,5.114 9.77944,9.3309 3.22991,4.9345 3.22991,11.9327 z"
       style="font-weight:100;font-size:96px;font-family:'Futura Condensed';-inkscape-font-specification:'Futura Condensed, Thin'"
       id="path214" />
    <path
       d="m 851.86746,1148.9777 h -14.53458 v -72.2243 h 14.53458 z"
       style="font-weight:100;font-size:96px;font-family:'Futura Condensed';-inkscape-font-specification:'Futura Condensed, Thin'"
       id="path216" />
    <path
       d="m 901.21315,1090.3907 q -2.96075,-0.8074 -5.11402,-0.8074 -8.34393,0 -13.27851,6.4598 -4.93457,6.3701 -4.93457,16.2392 0,9.3309 4.48598,16.0598 5.0243,7.5365 13.09906,7.5365 2.69159,0 5.4729,-0.8972 v 13.5477 q -1.79439,0.4486 -3.58879,0.8074 -1.70467,0.3589 -3.40934,0.3589 -13.90654,0 -22.87851,-11.6635 -8.34392,-10.8561 -8.34392,-25.929 0,-14.5346 8.34392,-24.9421 8.88225,-11.1252 22.60935,-11.1252 2.51215,0 4.66542,0.5383 0.4486,0.09 2.87103,0.8972 z"
       style="font-weight:100;font-size:96px;font-family:'Futura Condensed';-inkscape-font-specification:'Futura Condensed, Thin'"
       id="path218" />
    <path
       d="m 962.13259,1112.1926 q 0,15.1626 -5.74206,25.3907 -6.81869,12.2018 -19.55887,12.2018 -13.09907,0 -19.82804,-12.1121 -5.65234,-10.1383 -5.65234,-25.3907 0,-14.9831 5.56262,-24.942 6.72897,-12.0225 19.6486,-12.0225 13.18878,0 19.91775,11.843 5.65234,9.9589 5.65234,25.0318 z m -15.52149,0 q 0,-13.0093 -2.42243,-18.3028 -2.33271,-5.2934 -6.3701,-5.2934 -6.01121,0 -8.88224,8.2542 -2.24299,6.4598 -2.24299,15.8803 0,9.6 1.79439,15.4318 2.42243,8.0748 8.07477,8.0748 5.65233,0 8.16448,-8.1645 1.88412,-6.1009 1.88412,-15.8804 z"
       style="font-weight:100;font-size:96px;font-family:'Futura Condensed';-inkscape-font-specification:'Futura Condensed, Thin'"
       id="path220" />
    <path
       d="m 1002.7755,1148.9777 h -29.15888 v -72.2243 h 14.44486 l -0.0897,58.5869 h 14.80374 z"
       style="font-weight:100;font-size:96px;font-family:'Futura Condensed';-inkscape-font-specification:'Futura Condensed, Thin'"
       id="path222" />
    <path
       d="m 1061.4521,1112.1926 q 0,15.1626 -5.742,25.3907 -6.8187,12.2018 -19.5589,12.2018 -13.0991,0 -19.8281,-12.1121 -5.6523,-10.1383 -5.6523,-25.3907 0,-14.9831 5.5626,-24.942 6.729,-12.0225 19.6486,-12.0225 13.1888,0 19.9178,11.843 5.6523,9.9589 5.6523,25.0318 z m -15.5215,0 q 0,-13.0093 -2.4224,-18.3028 -2.3327,-5.2934 -6.3701,-5.2934 -6.0112,0 -8.8823,8.2542 -2.2429,6.4598 -2.2429,15.8803 0,9.6 1.7944,15.4318 2.4224,8.0748 8.0747,8.0748 5.6524,0 8.1645,-8.1645 1.8841,-6.1009 1.8841,-15.8804 z"
       style="font-weight:100;font-size:96px;font-family:'Futura Condensed';-inkscape-font-specification:'Futura Condensed, Thin'"
       id="path224" />
    <path
       d="m 1118.9623,1115.602 q 0,14.714 -5.5626,23.8654 -6.2804,10.3177 -18.0337,10.3177 -12.2018,0 -18.8411,-10.856 -6.0112,-9.8692 -6.0112,-25.7496 0,-16.3289 5.8318,-26.4673 6.6392,-11.4841 19.1103,-11.4841 8.3439,0 13.8168,4.6654 5.0243,4.2169 7.8056,12.3814 l -13.9963,5.3831 q -1.1663,-5.6523 -2.9607,-7.357 -1.7047,-1.7944 -4.8449,-1.7944 -5.2934,0 -7.8056,8.0748 -1.9738,6.2804 -1.9738,15.6112 0,10.8561 1.5252,16.0598 2.4225,8.344 9.0617,8.344 4.0374,0 6.4598,-4.6655 2.0636,-3.9476 2.0636,-8.3439 0,-0.4486 0,-0.9869 -0.1795,-0.628 -0.1795,-0.8972 h -9.0617 v -13.4579 h 23.5963 z"
       style="font-weight:100;font-size:96px;font-family:'Futura Condensed';-inkscape-font-specification:'Futura Condensed, Thin'"
       id="path226" />
    <path
       d="m 1145.3397,1148.9777 h -14.5345 v -72.2243 h 14.5345 z m 1.7944,-90.1683 -12.1121,13.2785 -6.729,-3.8579 9.2411,-13.7271 z"
       style="font-weight:100;font-size:96px;font-family:'Futura Condensed';-inkscape-font-specification:'Futura Condensed, Thin'"
       id="path228" />
    <path
       d="m 1203.3883,1148.9777 h -14.8935 l -2.871,-12.1122 h -14.086 l -2.6019,12.1122 h -14.2654 l 16.957,-72.2243 h 15.0729 z m -19.6486,-23.686 -5.2038,-29.6075 -4.8448,29.6075 z"
       style="font-weight:100;font-size:96px;font-family:'Futura Condensed';-inkscape-font-specification:'Futura Condensed, Thin'"
       id="path230" />
  </g>
</svg>
