<?xml version="1.0" encoding="UTF-8" standalone="no"?>
<!-- Created with Inkscape (http://www.inkscape.org/) -->

<svg
   version="1.1"
   id="svg1"
   width="39.106667"
   height="56.720001"
   viewBox="0 0 39.106667 56.720001"
   sodipodi:docname="universidad-de-extremadura-seeklogo.eps"
   xmlns:inkscape="http://www.inkscape.org/namespaces/inkscape"
   xmlns:sodipodi="http://sodipodi.sourceforge.net/DTD/sodipodi-0.dtd"
   xmlns="http://www.w3.org/2000/svg"
   xmlns:svg="http://www.w3.org/2000/svg">
  <defs
     id="defs1" />
  <sodipodi:namedview
     id="namedview1"
     pagecolor="#ffffff"
     bordercolor="#000000"
     borderopacity="0.25"
     inkscape:showpageshadow="2"
     inkscape:pageopacity="0.0"
     inkscape:pagecheckerboard="0"
     inkscape:deskcolor="#d1d1d1">
    <inkscape:page
       x="0"
       y="0"
       inkscape:label="1"
       id="page1"
       width="39.106667"
       height="56.720001"
       margin="0"
       bleed="0" />
  </sodipodi:namedview>
  <g
     id="g1"
     inkscape:groupmode="layer"
     inkscape:label="1">
    <path
       id="path1"
       d="M 90.5078,1.32813 90.1758,91.9141 H 150.652 V 67.3828 h -28.601 v -8.7305 h 25.945 V 35.5078 h -25.945 v -9.4922 h 29.336 V 1.48438 L 90.5078,1.32813"
       style="fill:#34b98a;fill-opacity:1;fill-rule:nonzero;stroke:none"
       transform="matrix(0.13333333,0,0,-0.13333333,0,56.72)" />
    <path
       id="path2"
       d="m 200.277,21.875 c -0.879,1.8359 -1.523,3.3398 -1.953,4.4727 -0.429,1.1328 -0.761,2.1484 -0.957,3.0664 -0.176,-0.8594 -0.449,-1.836 -0.859,-2.8711 -0.43,-1.0742 -1.153,-2.6172 -2.168,-4.668 L 184.066,1.32813 H 146.875 L 179.008,49.5703 150.664,91.875 h 37.133 l 6.66,-14.7852 c 0.098,-0.1562 0.215,-0.4492 0.371,-0.8007 1.25,-2.8125 2.09,-5.0196 2.539,-6.6993 0.313,1.0938 0.645,2.1875 1.094,3.3204 0.41,1.1328 0.996,2.5195 1.699,4.1796 l 6.856,14.7852 h 36.972 L 215.727,49.5703 247.914,1.32813 H 210.648 L 200.277,21.875"
       style="fill:#34b98a;fill-opacity:1;fill-rule:nonzero;stroke:none"
       transform="matrix(0.13333333,0,0,-0.13333333,0,56.72)" />
    <path
       id="path3"
       d="M 45.3086,405.875 H 234.125 V 379.75 H 75.4102 c -6.3204,7.379 -15.6446,12.047 -26.0743,12.047 -1.3515,0 -2.7109,-0.094 -4.0273,-0.231 v 14.309"
       style="fill:#f6b713;fill-opacity:1;fill-rule:nonzero;stroke:none"
       transform="matrix(0.13333333,0,0,-0.13333333,0,56.72)" />
    <path
       id="path4"
       d="M 61.957,424.859 77.6172,410.195 H 232.465 v 15.004 l -170.508,-0.34"
       style="fill:#f6b713;fill-opacity:1;fill-rule:nonzero;stroke:none"
       transform="matrix(0.13333333,0,0,-0.13333333,0,56.72)" />
    <path
       id="path5"
       d="M 61.957,424.859 77.6172,410.195 H 232.465 v 15.004 z"
       style="fill:none;stroke:#f6b713;stroke-width:0.49205;stroke-linecap:butt;stroke-linejoin:miter;stroke-miterlimit:3.864;stroke-dasharray:none;stroke-opacity:1"
       transform="matrix(0.13333333,0,0,-0.13333333,0,56.72)" />
    <path
       id="path6"
       d="m 104.07,370.762 h 19.981 V 349.77 H 104.07 v 20.992"
       style="fill:#f6b713;fill-opacity:1;fill-rule:nonzero;stroke:none"
       transform="matrix(0.13333333,0,0,-0.13333333,0,56.72)" />
    <path
       id="path7"
       d="m 139.102,370.254 h 19.988 v -20.988 h -19.988 v 20.988"
       style="fill:#f6b713;fill-opacity:1;fill-rule:nonzero;stroke:none"
       transform="matrix(0.13333333,0,0,-0.13333333,0,56.72)" />
    <path
       id="path8"
       d="m 174.887,369.918 h 19.98 v -20.977 h -19.98 v 20.977"
       style="fill:#f6b713;fill-opacity:1;fill-rule:nonzero;stroke:none"
       transform="matrix(0.13333333,0,0,-0.13333333,0,56.72)" />
    <path
       id="path9"
       d="m 212.523,370.918 h 19.981 v -20.996 h -19.981 v 20.996"
       style="fill:#f6b713;fill-opacity:1;fill-rule:nonzero;stroke:none"
       transform="matrix(0.13333333,0,0,-0.13333333,0,56.72)" />
    <path
       id="path10"
       d="M 106.727,337.773 93.2813,315.121 H 232.777 v 22.317 l -126.05,0.335"
       style="fill:#f6b713;fill-opacity:1;fill-rule:nonzero;stroke:none"
       transform="matrix(0.13333333,0,0,-0.13333333,0,56.72)" />
    <path
       id="path11"
       d="m 14.918,357.035 c 0,-19.199 15.414,-34.765 34.4179,-34.765 19.0196,0 34.4414,15.566 34.4414,34.765 0,19.199 -15.4218,34.762 -34.4414,34.762 -19.0039,0 -34.4179,-15.563 -34.4179,-34.762 m -14.918,0 c 0,27.262 22.0781,49.34 49.3359,49.34 27.2657,0 49.3633,-22.078 49.3633,-49.34 0,-27.254 -22.0976,-49.34 -49.3633,-49.34 C 22.0781,307.695 0,329.781 0,357.035"
       style="fill:#f6b713;fill-opacity:1;fill-rule:nonzero;stroke:none"
       transform="matrix(0.13333333,0,0,-0.13333333,0,56.72)" />
    <path
       id="path12"
       d="m 26.8242,357.035 c 0,12.438 10.086,22.516 22.5274,22.516 12.4297,0 22.5078,-10.078 22.5078,-22.516 0,-12.43 -10.0781,-22.512 -22.5078,-22.512 -12.4414,0 -22.5274,10.082 -22.5274,22.512"
       style="fill:#f6b713;fill-opacity:1;fill-rule:nonzero;stroke:none"
       transform="matrix(0.13333333,0,0,-0.13333333,0,56.72)" />
    <path
       id="path13"
       d="m 72.1133,304.234 65.7067,0.098 V 126.445 c 3.594,-8.144 12.414,-9.082 19.024,-9.082 27.066,0 22.828,51.192 22.672,62.5 -0.078,5.684 -0.743,92.418 -0.664,113.418 H 160.41 c -0.207,4.602 0.02,6.684 0,10.84 l 67.309,0.012 V 105.684 l 15.351,0.039 c -0.019,-3.575 -0.058,-4.903 -0.058,-8.9457 L 180.473,96.543 v 24.941 C 178.656,104.668 87.0898,74.2188 90.7227,140.352 l -0.4102,155.304 c -5.1484,-0.351 -11.9844,-0.328 -18.1992,0 v 8.578"
       style="fill:#f6b713;fill-opacity:1;fill-rule:nonzero;stroke:none"
       transform="matrix(0.13333333,0,0,-0.13333333,0,56.72)" />
    <path
       id="path14"
       d="m 72.1133,304.234 65.7067,0.098 V 126.445 c 3.594,-8.144 12.414,-9.082 19.024,-9.082 27.066,0 22.828,51.192 22.672,62.5 -0.078,5.684 -0.743,92.418 -0.664,113.418 H 160.41 c -0.207,4.602 0.02,6.684 0,10.84 l 67.309,0.012 V 105.684 l 15.351,0.039 c -0.019,-3.575 -0.058,-4.903 -0.058,-8.9457 L 180.473,96.543 v 24.941 C 178.656,104.668 87.0898,74.2188 90.7227,140.352 l -0.4102,155.304 c -5.1484,-0.351 -11.9844,-0.328 -18.1992,0 z"
       style="fill:none;stroke:#f6b713;stroke-width:0.49205;stroke-linecap:butt;stroke-linejoin:miter;stroke-miterlimit:3.864;stroke-dasharray:none;stroke-opacity:1"
       transform="matrix(0.13333333,0,0,-0.13333333,0,56.72)" />
    <path
       id="path15"
       d="m 287.113,0 h -15.918 v 2.89063 h 16.172 c 1.035,0 1.797,0.23437 2.285,0.70312 0.508,0.46875 0.762,1.19141 0.762,2.14844 0,0.95703 -0.254,1.66015 -0.762,2.1289 -0.488,0.46875 -1.25,0.6836 -2.285,0.6836 h -16.172 v 2.89061 h 15.918 c 2.11,0 3.653,-0.4492 4.629,-1.3672 0.957,-0.91794 1.426,-2.36326 1.426,-4.35544 0,-1.97266 -0.469,-3.41797 -1.426,-4.33594 C 290.766,0.46875 289.223,0 287.113,0"
       style="fill:#231f20;fill-opacity:1;fill-rule:nonzero;stroke:none"
       transform="matrix(0.13333333,0,0,-0.13333333,0,56.72)" />
    <path
       id="path16"
       d="m 293.051,19.2969 h -21.719 v 2.7148 l 15.078,5.7422 h -15.078 v 2.7734 h 21.719 V 27.793 l -15.215,-5.7227 h 15.215 v -2.7734"
       style="fill:#231f20;fill-opacity:1;fill-rule:nonzero;stroke:none"
       transform="matrix(0.13333333,0,0,-0.13333333,0,56.72)" />
    <path
       id="path17"
       d="m 271.332,38.5547 v 2.9297 h 21.719 v -2.9297 h -21.719"
       style="fill:#231f20;fill-opacity:1;fill-rule:nonzero;stroke:none"
       transform="matrix(0.13333333,0,0,-0.13333333,0,56.72)" />
    <path
       id="path18"
       d="m 293.051,55.1563 v -2.461 l -21.719,-4.7461 v 2.9492 l 14.746,3.0469 -14.746,3.0469 v 2.9492 l 21.719,-4.7851"
       style="fill:#231f20;fill-opacity:1;fill-rule:nonzero;stroke:none"
       transform="matrix(0.13333333,0,0,-0.13333333,0,56.72)" />
    <path
       id="path19"
       d="m 293.051,66.3086 h -21.719 v 8.6719 h 2.617 v -5.7422 h 6.446 v 5.2539 h 2.597 v -5.2539 h 7.344 v 5.7422 h 2.715 v -8.6719"
       style="fill:#231f20;fill-opacity:1;fill-rule:nonzero;stroke:none"
       transform="matrix(0.13333333,0,0,-0.13333333,0,56.72)" />
    <path
       id="path20"
       d="m 280.766,85.1758 v 0.918 c 0,1.1914 -0.274,2.0312 -0.821,2.5195 -0.566,0.4883 -1.543,0.7422 -2.949,0.7422 -1.172,0 -1.973,-0.2344 -2.422,-0.7032 -0.449,-0.4882 -0.683,-1.3671 -0.683,-2.6562 v -0.8203 z m 1.679,0 h 10.606 v -2.9102 h -21.719 v 3.5157 c 0,2.3632 0.43,4.0234 1.309,5.0195 0.879,1.0156 2.324,1.5039 4.355,1.5039 1.621,0 2.871,-0.3516 3.77,-1.0156 0.898,-0.6836 1.425,-1.7188 1.601,-3.0664 l 10.684,5.1562 v -3.1445 l -10.606,-4.961 v -0.0976"
       style="fill:#231f20;fill-opacity:1;fill-rule:evenodd;stroke:none"
       transform="matrix(0.13333333,0,0,-0.13333333,0,56.72)" />
    <path
       id="path21"
       d="m 289.242,99.1016 c 0.41,0.7031 0.742,1.3284 0.938,1.9144 0.195,0.586 0.312,1.132 0.312,1.64 0,0.899 -0.273,1.621 -0.781,2.149 -0.527,0.527 -1.231,0.781 -2.09,0.781 -1.289,0 -2.734,-1.016 -4.394,-3.027 -0.196,-0.235 -0.332,-0.411 -0.45,-0.528 -1.054,-1.289 -2.031,-2.1872 -2.949,-2.7146 -0.898,-0.5078 -1.914,-0.7617 -3.047,-0.7617 -1.621,0 -2.988,0.5078 -4.082,1.5623 -1.094,1.035 -1.64,2.324 -1.64,3.848 0,0.683 0.078,1.328 0.234,1.953 0.156,0.625 0.41,1.25 0.742,1.855 h 2.93 c -0.41,-0.566 -0.703,-1.113 -0.899,-1.66 -0.195,-0.527 -0.293,-1.074 -0.293,-1.601 0,-0.918 0.274,-1.641 0.801,-2.207 0.547,-0.547 1.27,-0.84 2.168,-0.84 1.25,0 2.735,1.074 4.434,3.203 0.156,0.215 0.273,0.371 0.351,0.469 1.016,1.23 1.973,2.109 2.891,2.617 0.937,0.527 1.992,0.781 3.184,0.781 1.66,0 3.027,-0.527 4.101,-1.582 1.074,-1.074 1.621,-2.422 1.621,-4.082 0,-0.605 -0.097,-1.211 -0.273,-1.836 -0.176,-0.625 -0.449,-1.2694 -0.821,-1.9334 h -2.988"
       style="fill:#231f20;fill-opacity:1;fill-rule:nonzero;stroke:none"
       transform="matrix(0.13333333,0,0,-0.13333333,0,56.72)" />
    <path
       id="path22"
       d="m 271.332,115.508 v 2.93 h 21.719 v -2.93 h -21.719"
       style="fill:#231f20;fill-opacity:1;fill-rule:nonzero;stroke:none"
       transform="matrix(0.13333333,0,0,-0.13333333,0,56.72)" />
    <path
       id="path23"
       d="m 290.238,129.512 v 1.504 c 0,1.66 -0.586,2.812 -1.777,3.476 -1.191,0.684 -3.301,0.996 -6.309,0.996 -3.027,0 -5.117,-0.312 -6.308,-0.996 -1.172,-0.664 -1.778,-1.816 -1.778,-3.476 v -1.504 z m 2.813,-2.969 h -21.719 v 3.867 c 0,2.949 0.82,5.039 2.441,6.231 1.602,1.211 4.415,1.816 8.399,1.816 3.984,0 6.797,-0.605 8.437,-1.816 1.621,-1.192 2.442,-3.282 2.442,-6.231 v -3.867"
       style="fill:#231f20;fill-opacity:1;fill-rule:evenodd;stroke:none"
       transform="matrix(0.13333333,0,0,-0.13333333,0,56.72)" />
    <path
       id="path24"
       d="m 276.938,150.098 9.414,-1.953 v 3.906 z m 16.113,-6.465 -21.719,5.078 v 2.754 l 21.719,5.078 v -2.949 l -4.258,-1.055 v -4.941 l 4.258,-1.016 v -2.949"
       style="fill:#231f20;fill-opacity:1;fill-rule:evenodd;stroke:none"
       transform="matrix(0.13333333,0,0,-0.13333333,0,56.72)" />
    <path
       id="path25"
       d="m 290.238,165.82 v 1.524 c 0,1.64 -0.586,2.812 -1.777,3.476 -1.191,0.664 -3.301,1.016 -6.309,1.016 -3.027,0 -5.117,-0.332 -6.308,-0.996 -1.172,-0.684 -1.778,-1.836 -1.778,-3.496 v -1.524 z m 2.813,-2.949 h -21.719 v 3.867 c 0,2.95 0.82,5.02 2.441,6.231 1.602,1.211 4.415,1.816 8.399,1.816 3.984,0 6.797,-0.605 8.437,-1.816 1.621,-1.211 2.442,-3.281 2.442,-6.231 v -3.867"
       style="fill:#231f20;fill-opacity:1;fill-rule:evenodd;stroke:none"
       transform="matrix(0.13333333,0,0,-0.13333333,0,56.72)" />
    <path
       id="path26"
       d="m 290.238,195.254 v 1.523 c 0,1.641 -0.586,2.797 -1.777,3.473 -1.191,0.664 -3.301,1.004 -6.309,1.004 -3.027,0 -5.117,-0.34 -6.308,-1.004 -1.172,-0.656 -1.778,-1.832 -1.778,-3.473 v -1.523 z m 2.813,-2.949 h -21.719 v 3.867 c 0,2.945 0.82,5.023 2.422,6.234 1.641,1.192 4.434,1.797 8.418,1.797 3.984,0 6.797,-0.605 8.437,-1.797 1.621,-1.211 2.442,-3.289 2.442,-6.234 v -3.867"
       style="fill:#231f20;fill-opacity:1;fill-rule:evenodd;stroke:none"
       transform="matrix(0.13333333,0,0,-0.13333333,0,56.72)" />
    <path
       id="path27"
       d="m 293.051,211.43 h -21.719 v 8.672 h 2.617 v -5.75 h 6.446 v 5.261 h 2.597 v -5.261 h 7.344 v 5.75 h 2.715 v -8.672"
       style="fill:#231f20;fill-opacity:1;fill-rule:nonzero;stroke:none"
       transform="matrix(0.13333333,0,0,-0.13333333,0,56.72)" />
    <path
       id="path28"
       d="m 293.051,237.301 h -21.719 v 8.679 h 2.617 v -5.75 h 6.446 v 5.262 h 2.597 v -5.262 h 7.344 v 5.75 h 2.715 v -8.679"
       style="fill:#231f20;fill-opacity:1;fill-rule:nonzero;stroke:none"
       transform="matrix(0.13333333,0,0,-0.13333333,0,56.72)" />
    <path
       id="path29"
       d="m 293.051,251.645 -11.055,3.976 -10.664,-3.769 v 2.91 l 7.129,2.383 -7.129,2.351 v 2.922 l 10.664,-3.77 11.055,3.985 v -3.086 l -7.559,-2.402 7.559,-2.442 v -3.058"
       style="fill:#231f20;fill-opacity:1;fill-rule:nonzero;stroke:none"
       transform="matrix(0.13333333,0,0,-0.13333333,0,56.72)" />
    <path
       id="path30"
       d="m 293.051,271.488 h -19.004 v -4.023 h -2.715 v 10.992 h 2.715 v -4.019 h 19.004 v -2.95"
       style="fill:#231f20;fill-opacity:1;fill-rule:nonzero;stroke:none"
       transform="matrix(0.13333333,0,0,-0.13333333,0,56.72)" />
    <path
       id="path31"
       d="m 280.766,287.82 v 0.907 c 0,1.195 -0.274,2.039 -0.821,2.527 -0.566,0.496 -1.543,0.734 -2.949,0.734 -1.172,0 -1.973,-0.23 -2.422,-0.707 -0.449,-0.465 -0.683,-1.351 -0.683,-2.64 v -0.821 z m 1.679,0 h 10.606 v -2.922 h -21.719 v 3.54 c 0,2.343 0.43,4.019 1.309,5.015 0.879,0.996 2.324,1.492 4.355,1.492 1.621,0 2.871,-0.34 3.75,-1.023 0.899,-0.68 1.445,-1.703 1.621,-3.063 l 10.684,5.149 v -3.133 l -10.606,-4.965 v -0.09"
       style="fill:#231f20;fill-opacity:1;fill-rule:evenodd;stroke:none"
       transform="matrix(0.13333333,0,0,-0.13333333,0,56.72)" />
    <path
       id="path32"
       d="m 293.051,302.195 h -21.719 v 8.684 h 2.617 v -5.762 h 6.446 v 5.27 h 2.597 v -5.27 h 7.344 v 5.762 h 2.715 v -8.684"
       style="fill:#231f20;fill-opacity:1;fill-rule:nonzero;stroke:none"
       transform="matrix(0.13333333,0,0,-0.13333333,0,56.72)" />
    <path
       id="path33"
       d="m 293.051,317.266 -21.719,1.859 v 2.648 l 15.02,2.946 -15.02,3.015 v 2.559 l 21.719,1.895 v -2.704 l -15.235,-0.886 15.235,-2.903 v -1.976 l -15.235,-2.895 15.235,-0.879 v -2.679"
       style="fill:#231f20;fill-opacity:1;fill-rule:nonzero;stroke:none"
       transform="matrix(0.13333333,0,0,-0.13333333,0,56.72)" />
    <path
       id="path34"
       d="m 276.938,344.098 9.414,-1.965 v 3.902 z m 16.113,-6.465 -21.719,5.078 v 2.742 l 21.719,5.094 v -2.961 l -4.258,-1.039 v -4.945 l 4.258,-1.016 v -2.953"
       style="fill:#231f20;fill-opacity:1;fill-rule:evenodd;stroke:none"
       transform="matrix(0.13333333,0,0,-0.13333333,0,56.72)" />
    <path
       id="path35"
       d="m 290.238,359.836 v 1.512 c 0,1.644 -0.586,2.808 -1.777,3.476 -1.191,0.668 -3.301,1 -6.309,1 -3.027,0 -5.117,-0.332 -6.308,-0.988 -1.172,-0.672 -1.778,-1.832 -1.778,-3.488 v -1.512 z m 2.813,-2.965 h -21.719 v 3.871 c 0,2.949 0.82,5.031 2.422,6.235 1.641,1.203 4.434,1.804 8.418,1.804 3.984,0 6.797,-0.601 8.437,-1.804 1.621,-1.204 2.442,-3.286 2.442,-6.235 v -3.871"
       style="fill:#231f20;fill-opacity:1;fill-rule:evenodd;stroke:none"
       transform="matrix(0.13333333,0,0,-0.13333333,0,56.72)" />
    <path
       id="path36"
       d="m 287.133,375.914 h -15.938 v 2.891 h 16.172 c 1.035,0 1.797,0.234 2.305,0.695 0.488,0.461 0.742,1.184 0.742,2.145 0,0.957 -0.254,1.671 -0.742,2.136 -0.508,0.457 -1.27,0.688 -2.305,0.688 h -16.172 v 2.89 h 15.938 c 2.09,0 3.633,-0.453 4.609,-1.367 0.957,-0.929 1.446,-2.379 1.446,-4.359 0,-1.981 -0.489,-3.43 -1.446,-4.348 -0.976,-0.918 -2.519,-1.371 -4.609,-1.371"
       style="fill:#231f20;fill-opacity:1;fill-rule:nonzero;stroke:none"
       transform="matrix(0.13333333,0,0,-0.13333333,0,56.72)" />
    <path
       id="path37"
       d="m 280.766,398.164 v 0.914 c 0,1.188 -0.274,2.024 -0.821,2.524 -0.566,0.492 -1.543,0.734 -2.949,0.734 -1.172,0 -1.973,-0.234 -2.422,-0.711 -0.449,-0.469 -0.683,-1.352 -0.683,-2.641 v -0.82 z m 1.679,0 h 10.606 v -2.93 h -21.719 v 3.547 c 0,2.344 0.43,4.016 1.309,5.008 0.879,1.008 2.324,1.492 4.355,1.492 1.621,0 2.871,-0.336 3.75,-1.019 0.899,-0.676 1.445,-1.703 1.621,-3.051 l 10.684,5.141 v -3.133 l -10.606,-4.969 v -0.086"
       style="fill:#231f20;fill-opacity:1;fill-rule:evenodd;stroke:none"
       transform="matrix(0.13333333,0,0,-0.13333333,0,56.72)" />
    <path
       id="path38"
       d="m 276.938,417.387 9.414,-1.957 v 3.906 z m 16.113,-6.457 -21.719,5.078 v 2.75 l 21.719,5.078 v -2.957 l -4.258,-1.043 v -4.938 l 4.258,-1.011 v -2.957"
       style="fill:#231f20;fill-opacity:1;fill-rule:evenodd;stroke:none"
       transform="matrix(0.13333333,0,0,-0.13333333,0,56.72)" />
  </g>
</svg>
