<?xml version="1.0" encoding="UTF-8" standalone="no"?>
<svg
   class="footer-wave"
   viewBox="0 0 1440 320"
   aria-hidden="true"
   version="1.1"
   id="svg5"
   sodipodi:docname="footer-wave.svg"
   inkscape:version="1.4.2 (ebf0e940, 2025-05-08)"
   xmlns:inkscape="http://www.inkscape.org/namespaces/inkscape"
   xmlns:sodipodi="http://sodipodi.sourceforge.net/DTD/sodipodi-0.dtd"
   xmlns="http://www.w3.org/2000/svg"
   xmlns:svg="http://www.w3.org/2000/svg">
  <sodipodi:namedview
     id="namedview5"
     pagecolor="#ffffff"
     bordercolor="#666666"
     borderopacity="1.0"
     inkscape:showpageshadow="2"
     inkscape:pageopacity="0.0"
     inkscape:pagecheckerboard="0"
     inkscape:deskcolor="#d1d1d1"
     inkscape:zoom="0.78382499"
     inkscape:cx="713.1694"
     inkscape:cy="189.45556"
     inkscape:window-width="1384"
     inkscape:window-height="652"
     inkscape:window-x="0"
     inkscape:window-y="25"
     inkscape:window-maximized="0"
     inkscape:current-layer="svg5">
    <inkscape:page
       x="0"
       y="0"
       width="1440"
       height="320"
       id="page5"
       margin="0"
       bleed="0" />
  </sodipodi:namedview>

  <g
     id="g5"
     transform="matrix(1.0997198,0,0,1.0970484,-1092.6393,-253.67438)">
    <path
       style="display:inline;fill:#f3d1c1;stroke-width:3.77953"
       d="m 1079.5405,333.23894 c -21.6296,22.37967 -35.7317,42.0537 -49.3043,68.7849 -20.5632,40.49908 -29.7231,79.33607 -29.7048,125.94558 0.01,13.00913 0.3225,25.60913 0.7053,27.99999 0.3827,2.39085 1.6493,10.34698 2.8145,17.68032 4.3882,27.61663 12.853,53.40499 26.1867,79.77822 5.2522,10.38865 9.8973,19.18845 10.3225,19.55512 1.2111,1.04456 9.4396,13.33131 9.4396,14.09525 0,0.37618 0.5958,1.40864 1.3239,2.29435 0.7281,0.88572 3.4767,4.3104 6.1079,7.6104 10.261,12.8693 13.5581,16.62388 22.5682,25.69978 l 9.3334,9.40147 0.3651,-22.94744 c 0.2736,-17.20247 -0.06,-23.37939 -1.3334,-24.67281 -0.9341,-0.94896 -3.1984,-3.72734 -5.0317,-6.17419 -1.8334,-2.44685 -4.6834,-6.07848 -6.3334,-8.07029 -1.65,-1.99181 -3,-3.99165 -3,-4.44408 0,-0.45243 -2.3284,-4.26581 -5.1742,-8.47419 -2.8458,-4.20837 -5.5863,-9.00159 -6.0899,-10.65159 -0.5035,-1.65 -1.4164,-3 -2.0286,-3 -0.8823,0 -3.2405,-4.74287 -4.6405,-9.33333 -0.1118,-0.36665 -2.0421,-4.56667 -4.2895,-9.33333 -7.3299,-15.54656 -14.911,-43.34288 -17.8189,-65.33335 -2.2954,-17.35854 -2.0366,-48.20349 0.5593,-66.66667 6.065,-43.13658 23.9668,-84.81105 50.8774,-118.44011 l 7.8209,-9.77345 81.0897,81.26484 81.0897,81.26479 11.1952,-10.94597 11.1952,-10.94596 -91.8966,-91.87873 c -50.5432,-50.5333 -92.4496,-92.06358 -93.1253,-92.28953 -0.6758,-0.22601 -6.6263,5.17406 -13.2234,12.00001 z m 160.2101,210.41079 c -8.1609,8.06665 -15.4934,14.66665 -16.2943,14.66665 -0.9983,0 -1.4563,7.46627 -1.4563,23.73918 v 23.73918 l 27.3334,-27.44652 c 15.0333,-15.09559 27.3333,-27.85856 27.3333,-28.36218 0,-1.33376 -19.6225,-21.00299 -20.9531,-21.00299 -0.6187,0 -7.802,6.6 -15.963,14.66668 z"
       id="path7" />
    <path
       style="display:inline;fill:#e6bfc7;stroke-width:3.77953"
       d="m 2111.0114,409.31972 -91.6554,92.09931 10.9666,11.0239 10.9667,11.02389 80.7143,-80.67405 c 44.3929,-44.37075 81.3028,-80.64571 82.0221,-80.61101 1.8681,0.0903 11.8145,12.82072 21.5299,27.55646 46.9028,71.1394 52.1884,166.30114 13.5295,243.58494 -7.9025,15.79813 -18.3669,32.24028 -28.5035,44.7862 l -7.2482,8.97091 0.055,22.51922 0.055,22.51921 13.9006,-14.37521 c 54.4525,-56.3117 82.2789,-128.4146 78.8417,-204.29147 -3.3006,-72.85841 -30.4424,-134.6976 -82.6615,-188.33333 -4.4623,-4.58332 -8.7306,-8.23544 -9.4851,-8.11582 -0.7545,0.11944 -42.6168,41.66219 -93.0272,92.31685 z m -81.5232,126.31136 -10.4381,10.8457 25.8083,25.83621 25.8083,25.8362 0.367,-22.2932 0.3666,-22.2932 -14.344,-14.3887 c -7.8893,-7.9138 -14.971,-14.38874 -15.7371,-14.38874 -0.7662,0 -6.0901,4.88058 -11.8311,10.84573 z"
       id="path6" />
    <path
       style="display:inline;fill:#bed2e5;stroke-width:3.77953"
       d="M 1452.8614,352.12402 C 1446.8877,346.14223 1442,340.84084 1442,340.34317 c 0,-1.4895 17.3655,-18.99504 26.6667,-26.88179 33.1812,-28.13525 78.5477,-50.75891 118.4252,-59.05706 31.3041,-6.51412 72.1945,-8.30373 97.5748,-4.27045 6.9667,1.10709 15.0667,2.37066 18,2.80792 2.9333,0.43726 9.7186,2.02047 15.0783,3.51825 5.3597,1.49777 10.7597,2.92871 12,3.17986 1.2403,0.25115 4.055,1.1632 6.2551,2.02677 2.2,0.86357 5.0241,1.77743 6.2758,2.03078 3.1955,0.64677 35.9621,15.33352 38.3908,17.20761 1.1,0.84881 3.8,2.41742 6,3.48579 2.2,1.06837 4.6,2.39454 5.3333,2.94703 4.6307,3.48879 19.002,13.18052 20.6667,13.93718 1.1,0.49999 2.8019,1.70172 3.7821,2.67051 0.9801,0.9688 3.9604,3.40237 6.6227,5.40795 11.1964,8.43444 11.2634,7.2472 -1.1109,19.68618 l -11.0109,11.06833 -10.1415,-7.54697 c -5.5778,-4.15083 -10.4415,-7.85183 -10.8081,-8.22445 -1.7208,-1.74864 -16.1033,-10.66994 -17.2018,-10.66994 -0.6834,0 -1.4427,-0.52189 -1.6871,-1.15976 -0.7425,-1.93736 -27.5644,-14.21239 -42.3029,-19.35985 -16.1321,-5.63418 -26.509,-8.44865 -34.8487,-9.45185 -3.2778,-0.39428 -7.4595,-1.0264 -9.2929,-1.40472 -7.1328,-1.4719 -33.1761,-2.86346 -44.6278,-2.38457 -48.4247,2.02505 -92.4587,16.54349 -131.5841,43.38451 -6.5348,4.48302 -18.9724,15.23455 -27.6777,23.92562 -8.6954,8.68118 -16.0898,15.78396 -16.432,15.78396 -0.3423,0 -5.5099,-4.89419 -11.4837,-10.87599 z"
       id="path5" />

    <path
       style="display:inline;fill:#c5bed5;stroke-width:3.77953"
       d="m 1822.2296,721.22993 -11.0449,-11.10263 92.0743,-91.81708 c 50.6409,-50.49944 92.0744,-92.29901 92.0744,-92.88802 0,-1.25019 -160.8956,-162.42302 -162.1436,-162.42302 -0.462,0 -5.8243,-5.00674 -11.9161,-11.12608 l -11.0762,-11.12608 11.8252,-11.77036 11.8251,-11.77037 103.8857,104.09011 103.8856,104.09012 -103.4793,103.473 c -56.9137,56.91016 -103.7912,103.473 -104.1724,103.473 -0.3811,0 -5.6631,-4.99616 -11.7378,-11.10259 z"
       id="path3" />
    <path
       style="display:inline;fill:#c3dcc6;stroke-width:3.77953"
       d="m 1347.7994,617.60201 -92.2006,-92.01725 92.1059,-91.99065 c 50.6581,-50.59484 92.5956,-91.82641 93.1944,-91.6257 0.5987,0.20073 5.7954,4.86493 11.5481,10.36493 l 10.4594,10 -81.4492,81.66666 -81.4492,81.66666 81.3115,81.31971 81.3116,81.31972 -10.6177,10.6803 c -5.8397,5.87418 -10.9317,10.66964 -11.3156,10.6566 -0.3839,-0.0113 -42.1882,-41.43148 -92.8986,-92.04098 z"
       id="path2" />
  </g>
</svg>
