<svg xmlns="http://www.w3.org/2000/svg" viewBox="0 0 640 640" role="img" aria-labelledby="title desc">
  <title id="title">H5PDF background</title>
  <desc id="desc">Stylised PDF to H5P graphic used as a decorative background.</desc>
  <defs>
    <linearGradient id="pdfRed" x1="0%" y1="0%" x2="100%" y2="100%">
      <stop offset="0%" stop-color="#ff5039"/>
      <stop offset="100%" stop-color="#d71920"/>
    </linearGradient>
    <linearGradient id="h5Blue" x1="0%" y1="0%" x2="100%" y2="100%">
      <stop offset="0%" stop-color="#2f8cff"/>
      <stop offset="100%" stop-color="#1751c4"/>
    </linearGradient>
    <linearGradient id="arrowMix" x1="0%" y1="50%" x2="100%" y2="50%">
      <stop offset="0%" stop-color="#ff5039"/>
      <stop offset="100%" stop-color="#2f8cff"/>
    </linearGradient>
  </defs>

  <g opacity=".95">
    <path d="M95 110h126l60 60v182c0 13-11 24-24 24H95c-13 0-24-11-24-24V134c0-13 11-24 24-24z" fill="#f4f7fb"/>
    <path d="M221 110v47c0 13 11 24 24 24h36z" fill="#dce5f3"/>
    <path d="M71 318h210v58H71z" fill="url(#pdfRed)"/>
    <rect x="46" y="154" width="154" height="70" rx="20" fill="url(#pdfRed)"/>
    <text x="123" y="202" font-family="Arial, Helvetica, sans-serif" font-size="46" font-weight="800" text-anchor="middle" fill="#fff">PDF</text>
  </g>

  <g opacity=".92">
    <path d="M278 244h142v-26l70 58-70 58v-26H278c-14 0-24-10-24-24v-16c0-14 10-24 24-24z" fill="url(#arrowMix)"/>
  </g>

  <g opacity=".96">
    <rect x="456" y="138" width="134" height="164" rx="26" fill="url(#h5Blue)"/>
    <rect x="456" y="290" width="134" height="18" rx="9" fill="#1747aa"/>
    <circle cx="520" cy="245" r="40" fill="#4fa0ff"/>
    <polygon points="506,224 536,245 506,266" fill="#fff"/>
    <text x="523" y="198" font-family="Arial, Helvetica, sans-serif" font-size="42" font-weight="800" text-anchor="middle" fill="#fff">H5P</text>
  </g>

  <g opacity=".94">
    <text x="320" y="455" font-family="Arial, Helvetica, sans-serif" font-size="64" font-weight="900" text-anchor="middle">
      <tspan fill="#1751c4">H5P</tspan><tspan fill="#e32c2c">DF</tspan>
    </text>
  </g>
</svg>
